HIERARCHY
ROOT Hips
{
	OFFSET 0.000000 0.000000 0.000000
	CHANNELS 6 Xposition Yposition Zposition Yrotation Xrotation Zrotation
	JOINT Chest
	{
		OFFSET 0.000000 -0.009281 11.569106
		CHANNELS 3 Yrotation Xrotation Zrotation
		JOINT Chest2
		{
			OFFSET -0.000000 0.016865 9.269641
			CHANNELS 3 Yrotation Xrotation Zrotation
			JOINT Chest3
			{
				OFFSET -0.000000 0.000001 8.374491
				CHANNELS 3 Yrotation Xrotation Zrotation
				JOINT Chest4
				{
					OFFSET -0.000000 0.000001 8.374493
					CHANNELS 3 Yrotation Xrotation Zrotation
					JOINT Neck
					{
						OFFSET -0.000000 0.000002 12.152554
						CHANNELS 3 Yrotation Xrotation Zrotation
						JOINT Head
						{
							OFFSET -0.000000 0.040101 7.802319
							CHANNELS 3 Yrotation Xrotation Zrotation
							End Site
							{
								OFFSET -0.000000 0.020947 14.853096
							}
						}
					}
					JOINT RightCollar
					{
						OFFSET 2.894404 0.000001 6.791374
						CHANNELS 3 Yrotation Xrotation Zrotation
						JOINT RightShoulder
						{
							OFFSET 13.574684 0.000001 0.000000
							CHANNELS 3 Yrotation Xrotation Zrotation
							JOINT RightElbow
							{
								OFFSET 23.923903 0.000002 0.000000
								CHANNELS 3 Yrotation Xrotation Zrotation
								JOINT RightWrist
								{
									OFFSET 19.846718 0.012767 0.000000
									CHANNELS 3 Yrotation Xrotation Zrotation
									End Site
									{
										OFFSET 14.973145 0.000001 0.000000
									}
								}
							}
						}
					}
					JOINT LeftCollar
					{
						OFFSET -2.894404 0.000001 6.791374
						CHANNELS 3 Yrotation Xrotation Zrotation
						JOINT LeftShoulder
						{
							OFFSET -13.574684 -0.000001 0.000000
							CHANNELS 3 Yrotation Xrotation Zrotation
							JOINT LeftElbow
							{
								OFFSET -23.923903 -0.000002 0.000000
								CHANNELS 3 Yrotation Xrotation Zrotation
								JOINT LeftWrist
								{
									OFFSET -19.846718 0.012763 0.000000
									CHANNELS 3 Yrotation Xrotation Zrotation
									End Site
									{
										OFFSET -14.973145 -0.000001 0.000000
									}
								}
							}
						}
					}
				}
			}
		}
	}
	JOINT RightHip
	{
		OFFSET 9.469263 0.004643 0.045487
		CHANNELS 3 Yrotation Xrotation Zrotation
		JOINT RightKnee
		{
			OFFSET 0.000000 0.002661 -40.478676
			CHANNELS 3 Yrotation Xrotation Zrotation
			JOINT RightAnkle
			{
				OFFSET 0.000000 0.049106 -35.224068
				CHANNELS 3 Yrotation Xrotation Zrotation
				JOINT RightToe
				{
					OFFSET -0.000001 12.539529 -6.151390
					CHANNELS 3 Yrotation Xrotation Zrotation
					End Site
					{
						OFFSET -0.000001 5.044994 -1.291870
					}
				}
			}
		}
	}
	JOINT LeftHip
	{
		OFFSET -9.469263 0.004641 0.045487
		CHANNELS 3 Yrotation Xrotation Zrotation
		JOINT LeftKnee
		{
			OFFSET 0.000000 0.002661 -40.478676
			CHANNELS 3 Yrotation Xrotation Zrotation
			JOINT LeftAnkle
			{
				OFFSET 0.000000 0.049106 -35.224068
				CHANNELS 3 Yrotation Xrotation Zrotation
				JOINT LeftToe
				{
					OFFSET -0.000001 12.539529 -6.151390
					CHANNELS 3 Yrotation Xrotation Zrotation
					End Site
					{
						OFFSET -0.000001 5.044994 -1.291870
					}
				}
			}
		}
	}
}
MOTION
Frames: 11
Frame Time: 0.016667
12.122893 6.705645 82.570549 -8.304767 -2.803273 -106.041166 -0.594915 -3.472861 0.909283 -0.286054 -1.605912 0.295806 -0.286054 -1.605911 0.295809 -0.213749 -1.204572 0.221090 1.164859 -16.271245 -3.903674 0.762172 5.936492 -6.837150 3.532972 12.808053 -0.595033 82.432344 40.124592 76.186245 58.768635 24.223131 91.503382 -66.291535 42.628840 -3.541236 -3.958338 7.495942 -6.112613 -77.250765 43.511969 -71.943967 -51.298863 21.992195 -85.964235 69.481745 31.822374 8.327223 -2.129468 -5.334596 -2.876700 4.957414 -15.560052 -6.817625 -3.561280 10.429316 -1.515169 0.278534 0.268976 0.100298 -1.100443 -7.432789 -0.815732 1.043705 -11.435659 0.731187 1.101400 10.777743 2.102019 0.051156 -0.113960 -0.014818 
12.226795 6.641513 82.583450 -8.175769 -2.732956 -105.923318 -0.613152 -3.430171 0.841143 -0.295796 -1.577472 0.276528 -0.295796 -1.577473 0.276534 -0.221120 -1.183239 0.206622 1.143386 -16.100609 -3.905735 0.713677 6.252047 -6.853057 3.652383 13.367808 -0.723099 81.733397 40.184346 75.012129 56.689460 23.309107 92.094063 -67.536596 41.657973 -2.128500 -4.066501 7.845052 -6.099055 -76.715708 43.699984 -71.149548 -48.757179 21.361350 -86.071831 69.638819 31.368412 5.380696 -2.099330 -5.362407 -2.974229 4.925626 -15.400279 -6.798934 -3.619995 10.413530 -1.543799 0.270090 0.249753 0.088941 -1.059524 -7.440529 -0.843814 1.026167 -11.267337 0.735424 0.954256 10.717231 2.008024 0.125569 -0.061721 -0.013154 
12.333838 6.573013 82.599609 -7.994547 -2.658497 -105.815306 -0.616426 -3.365841 0.780287 -0.297353 -1.550053 0.250043 -0.297353 -1.550053 0.250046 -0.222367 -1.162662 0.186767 1.101796 -15.902832 -3.892968 0.631745 6.617463 -6.849604 3.809494 14.126692 -0.736909 80.686479 40.264419 73.639220 54.017296 22.689612 92.387188 -68.205354 40.747935 -0.223170 -4.158965 8.196342 -6.043667 -76.248284 43.869035 -70.482915 -46.131665 20.772163 -86.169605 69.586275 30.911322 2.456192 -2.049347 -5.390744 -3.037770 4.876976 -15.144700 -6.811113 -3.651650 10.358205 -1.566848 0.251373 0.233299 0.079256 -0.999785 -7.425712 -0.857181 0.997626 -11.045173 0.781940 0.794560 10.632308 1.878311 0.190271 -0.016497 -0.014669 
12.447846 6.502560 82.619186 -7.780633 -2.582474 -105.705210 -0.607240 -3.300253 0.718032 -0.293078 -1.522302 0.222094 -0.293078 -1.522302 0.222095 -0.219243 -1.141834 0.165827 1.045693 -15.679235 -3.871814 0.524478 7.030336 -6.836859 3.937504 15.014762 -0.710732 79.457517 40.358932 72.209518 50.843518 22.356864 92.359997 -68.381907 39.960879 2.038717 -4.239847 8.524937 -6.004013 -75.736320 44.049396 -69.910114 -43.502923 20.307039 -86.242449 69.455340 30.597618 -0.430194 -1.984480 -5.441293 -3.075666 4.820801 -14.783412 -6.869024 -3.656619 10.264880 -1.552834 0.220678 0.213397 0.070613 -0.936233 -7.414090 -0.865954 0.981177 -10.756705 0.860420 0.614635 10.508564 1.708658 0.246904 0.028595 -0.016102 
12.568197 6.430761 82.643471 -7.543428 -2.502031 -105.591528 -0.612026 -3.243674 0.670204 -0.296078 -1.496893 0.202513 -0.296078 -1.496893 0.202514 -0.221550 -1.122769 0.151153 1.003622 -15.429809 -3.856675 0.439745 7.491615 -6.831289 4.057414 15.943893 -0.699283 78.157486 40.481643 70.900505 47.355874 22.298761 92.085929 -68.412862 39.158957 4.434940 -4.285883 9.002935 -6.027213 -75.063827 44.238961 -69.312958 -40.863731 19.956098 -86.111917 69.261745 30.385855 -3.371641 -1.911145 -5.517846 -3.099798 4.757198 -14.329431 -6.971590 -3.631661 10.143051 -1.504467 0.178475 0.189620 0.068314 -0.869615 -7.420498 -0.842872 0.969681 -10.384110 0.863632 0.437617 10.331881 1.571125 0.296697 0.075519 -0.018431 
12.692885 6.356381 82.670776 -7.271111 -2.411924 -105.483659 -0.617989 -3.182394 0.639173 -0.301296 -1.468552 0.191146 -0.301296 -1.468552 0.191144 -0.225500 -1.101509 0.142628 0.964466 -15.162192 -3.848708 0.356711 7.986553 -6.838970 4.120528 16.876692 -0.750452 76.863015 40.570012 69.791638 43.752416 22.417333 91.643674 -68.456199 38.402004 6.796673 -4.326246 9.774188 -6.039465 -74.049817 44.295197 -68.478698 -38.196467 19.759908 -85.753544 68.903495 30.047508 -6.455013 -1.826323 -5.604057 -3.116375 4.677497 -13.784269 -7.057256 -3.589150 9.990764 -1.483303 0.129335 0.158978 0.069550 -0.805378 -7.428424 -0.781651 0.967400 -9.936211 0.793393 0.261910 10.109832 1.451132 0.339624 0.121846 -0.020290 
12.818097 6.277617 82.698708 -6.967881 -2.310868 -105.378064 -0.609422 -3.106662 0.604403 -0.301037 -1.433913 0.177695 -0.301037 -1.433913 0.177695 -0.225348 -1.075523 0.132560 0.904238 -14.883453 -3.836404 0.235048 8.501187 -6.847342 4.200782 17.910889 -0.725448 75.376649 40.599160 68.699436 40.114142 22.613904 91.117640 -68.508553 37.723514 8.980773 -4.387028 10.705054 -6.059067 -72.693410 44.239388 -67.414486 -35.389263 19.775119 -85.204561 68.568296 29.565345 -9.535694 -1.738163 -5.695052 -3.149185 4.585411 -13.163533 -7.150662 -3.528630 9.814308 -1.428769 0.078277 0.123656 0.071473 -0.736657 -7.432012 -0.700805 0.958746 -9.426954 0.667597 0.093094 9.849298 1.367987 0.374615 0.164993 -0.020933 
12.943553 6.194483 82.727409 -6.677757 -2.210847 -105.277886 -0.602271 -3.045678 0.576339 -0.299504 -1.407094 0.167215 -0.299504 -1.407094 0.167215 -0.224232 -1.055403 0.124717 0.832777 -14.586243 -3.825071 0.090615 9.049467 -6.863139 4.312484 19.208461 -0.652263 73.593465 40.465066 67.394289 36.479125 22.813368 90.568274 -68.436631 37.058554 10.953433 -4.388816 11.597336 -6.049116 -71.238170 44.080583 -66.398257 -32.470484 19.962249 -84.469919 68.097628 29.078502 -12.543131 -1.644776 -5.822891 -3.168188 4.481280 -12.493301 -7.285750 -3.438444 9.622586 -1.333701 0.020119 0.089684 0.067497 -0.658356 -7.465967 -0.649156 0.920393 -8.881975 0.580419 -0.066714 9.561198 1.290994 0.402356 0.208631 -0.019832 
13.070862 6.110912 82.757652 -6.400572 -2.103431 -105.163118 -0.613526 -3.004456 0.547746 -0.299658 -1.387325 0.159727 -0.299657 -1.387325 0.159725 -0.224370 -1.040573 0.119109 0.763778 -14.268144 -3.821845 -0.053939 9.636275 -6.894765 4.447828 20.616564 -0.539842 71.671620 40.157271 66.008526 32.796321 22.986348 90.035438 -68.347435 36.347145 12.673528 -4.302091 12.387896 -6.011434 -69.880649 43.875359 -65.594234 -29.524360 20.212528 -83.558041 67.524521 28.598275 -15.390930 -1.558217 -5.984335 -3.207674 4.364772 -11.784803 -7.446754 -3.313468 9.422383 -1.195935 -0.045566 0.058053 0.059070 -0.588892 -7.525820 -0.650482 0.871317 -8.315634 0.579851 -0.232152 9.265333 1.156745 0.425708 0.244627 -0.018403 
13.203120 6.029974 82.787941 -6.146419 -1.980080 -105.035100 -0.635874 -2.981429 0.513309 -0.298934 -1.372741 0.149869 -0.298934 -1.372742 0.149871 -0.223854 -1.029629 0.111725 0.691846 -13.935369 -3.820272 -0.206099 10.250006 -6.932183 4.548211 22.083904 -0.418976 69.653190 39.656895 64.572082 29.104454 23.173614 89.486782 -67.962855 35.711801 14.332162 -4.157690 13.027264 -5.959423 -68.685591 43.691648 -65.047382 -26.688319 20.416921 -82.549195 66.941653 28.143858 -18.006602 -1.492564 -6.194744 -3.307468 4.236392 -11.029639 -7.580380 -3.163841 9.215711 -1.038627 -0.115282 0.022451 0.049261 -0.541997 -7.603337 -0.671759 0.819469 -7.732349 0.615272 -0.403074 8.967186 0.994486 0.448861 0.257301 -0.015948 
13.335004 5.952616 82.816666 -5.905842 -1.856161 -104.900497 -0.664131 -2.970169 0.473105 -0.300150 -1.361590 0.140039 -0.300150 -1.361590 0.140038 -0.224789 -1.021261 0.104355 0.629248 -13.597918 -3.816949 -0.340944 10.872893 -6.963797 4.634500 23.384860 -0.239896 67.714024 39.079761 63.335825 25.307837 23.402393 88.854190 -67.531856 35.008278 15.937241 -3.949332 13.504951 -5.914864 -67.591190 43.523533 -64.725359 -24.041656 20.559891 -81.453004 66.511965 27.746785 -20.458481 -1.431055 -6.435846 -3.455587 4.099448 -10.240500 -7.683192 -3.000792 8.995957 -0.870929 -0.181283 -0.011937 0.040805 -0.502999 -7.715249 -0.652577 0.780132 -7.113956 0.592620 -0.577876 8.652722 0.845620 0.470512 0.265484 -0.013625 
